# xmcd CD database file
#
# Track frame offsets:
#	150
#	13911
#	30815
#	50036
#	69878
#	85311
#	99404
#	114524
#	127951
#	144927
#	158238
#	177720
#	191728
#	205500
#	220685
#	234682
#	251572
#	268075
#
# Disc length: 3785 seconds
#
# Revision: 0
# Processed by: cddbd v1.5.1PL2 Copyright (c) Steve Scherf et al.
# Submitted via: NeoAudio 9.9.9
#
DISCID=f80ec712
DTITLE=get up and dance special 43 - get up and dance special 43
DYEAR=1900
DGENRE=Country
TTITLE0=Second Chance Waltz
TTITLE1=Back To Louisiana x
TTITLE2=With These Eyes
TTITLE3=We Are The Same
TTITLE4=Step On the good Foot
TTITLE5=Swingt Sweet Pussycat
TTITLE6=If You Don't Know Me
TTITLE7=Mrs. P.D.
TTITLE8=It takes 2 
TTITLE9=Loved By You
TTITLE10=Delight
TTITLE11=Mission
TTITLE12=The Luckiest Man
TTITLE13=Tush
TTITLE14=Speechless
TTITLE15=Buttons
TTITLE16=Take It to The Floor
TTITLE17=Shake Your Tall Feather
EXTD=
EXTT0=
EXTT1=
EXTT2=
EXTT3=
EXTT4=
EXTT5=
EXTT6=
EXTT7=
EXTT8=
EXTT9=
EXTT10=
EXTT11=
EXTT12=
EXTT13=
EXTT14=
EXTT15=
EXTT16=
EXTT17=
PLAYORDER=
